#!OML:ASF F:\VICON\USERDATA\INSTALL\rory3\rory3.ASF
:FULLY-SPECIFIED
:DEGREES
68
root 0.7334201818073226 17.863517222685953 21.48671348989592 -4.358996108952375 -3.5788024850361655 -0.7033518303543234
lfemur -11.7528795659226 -2.505225360617196 -23.230632562667818
ltibia 37.951847356876925
lfoot -7.881994897952696 -0.691547660046967
ltoes -4.715626323849768
rfemur -12.513863155135432 2.224269368403316 22.670535976745313
rtibia 48.13600539855895
rfoot -2.250205937109749 -4.143264801533821
rtoes 4.51888055913465
lowerback 10.602567393237418 1.1452894869844241 0.5614109944326446
upperback 0.6098974639227446 0.9385957578673694 0.704153424444924
thorax -5.285704889535935 0.8161529341266063 0.7809966820195005
lowerneck -15.924430081200958 -2.878588944565275 -1.9489131210689563
upperneck 21.08208621470719 -3.432959664471972 0.9491353758499165
head 9.355940236662258 -1.7332409128462727 0.1913004183201733
lclavicle -1.3879679699864146e-15 -1.8442003054895188e-15
lhumerus -31.442962890940105 3.8264119864734885 81.28066713694496
lradius 26.645585744671124
lwrist 4.36538715651026
lhand -27.479151885205823 23.460914147103733
lfingers 7.125019999999999
lthumb -0.6503689546603926 53.886957612140236
rclavicle -1.3889733826873544e-15 -1.845134554215485e-15
rhumerus -27.618135294820434 -24.9611631089565 -77.51087091716215
rradius 26.64011990490421
rwrist 4.927877222960562
rhand -18.370762166810465 22.680433254844967
rfingers 7.125019999999999
rthumb 7.892756283277109 -7.164217296979084
69
root 0.7447132031108684 17.86757920522809 22.51794745842333 -4.423732923633535 -3.092072997915581 -0.34537051351288284
lfemur -9.032227624570364 -3.032475029844827 -24.08967480716936
ltibia 37.194204588620764
lfoot -8.050694440256349 -1.0803788751035843
ltoes -4.401453515252968
rfemur -15.932440966934188 1.5556932824295218 22.135780529871283
rtibia 45.15830286533265
rfoot -2.813631558690065 -4.447961257912382
rtoes 4.543841580232096
lowerback 10.740991001469766 0.8578773500462071 0.10152474090901986
upperback 0.7141269042829386 0.5801485688724142 0.8429856682224679
thorax -5.26627386474456 0.6322031760476772 1.202410900596252
lowerneck -15.931935400926601 -2.867984319090012 -1.9889868270157622
upperneck 21.070312670079062 -3.415602960688727 0.9924750451271466
head 9.330962573891508 -1.7270483398647993 0.18549856880926913
lclavicle -1.387967969986925e-15 -1.844200305489993e-15
lhumerus -29.582738636097925 2.2767759373435763 81.5579649055375
lradius 26.947697646517224
lwrist 4.791738132870764
lhand -27.558000310878842 23.31538173961535
lfingers 7.125019999999999
lthumb -0.6917667694085369 53.83000293415877
rclavicle -1.388973382687543e-15 -1.84513455421566e-15
rhumerus -28.822984780334348 -25.525674630953013 -76.74063431495426
rradius 26.423083199512835
rwrist 5.098401715887969
rhand -18.36570096665112 22.69797357757757
rfingers 7.125019999999999
rthumb 7.8620150254625845 -7.2043747490929935
70
root 0.7472706555597419 17.85503191239159 23.722975059596504 -4.355191533099072 -2.5146520885456263 0.07475798635471298
lfemur -7.125542293527601 -3.622347338694188 -24.88696434489936
ltibia 35.87506939171189
lfoot -8.043327115333037 -1.2517042386316761
ltoes -3.675382407691663
rfemur -18.965988494349155 1.2182131109630032 21.75632660300438
rtibia 42.42824339905946
rfoot -3.329565804890132 -4.598668524999866
rtoes 4.266296935177211
lowerback 10.83864669903653 0.5957674938806643 -0.3443624772606486
upperback 0.778957480262351 0.18311616650540818 0.9386610904414878
thorax -5.199962888303782 0.4729239365780823 1.6225690865936298
lowerneck -15.908433326069165 -2.854604875905048 -2.0136524421610917
upperneck 21.04775227154856 -3.4371992396868407 1.0129743854195101
head 9.310202974876054 -1.726531380647157 0.1831892072862552
lclavicle -1.3879679699864173e-15 -1.8442003054895215e-15
lhumerus -27.730784846219464 0.8457781041389518 81.70123218536631
lradius 26.90964423575266
lwrist 5.277163540643981
lhand -27.470506297971333 23.498561637084702
lfingers 7.125019999999999
lthumb -0.5941295126896567 54.01999350199533
rclavicle -1.388973382687496e-15 -1.8451345542156163e-15
rhumerus -30.099961091861996 -25.604976353119266 -76.13786069827866
rradius 26.135191680739375
rwrist 5.092087978953488
rhand -18.337508203325278 22.76329712546132
rfingers 7.125019999999999
rthumb 7.841407824160056 -7.218542366801961
71
root 0.7394570252613166 17.8356399125362 25.03474715853679 -4.108392732037906 -1.9233224559475848 0.5613795396401238
lfemur -5.084802930613146 -3.9951935349514116 -25.897828597086928
ltibia 33.93136838520201
lfoot -8.40377148548672 -1.7523284682884952
ltoes -3.337988598317262
rfemur -21.662259617114337 1.1976607704828721 21.325576715410563
rtibia 39.98453500124594
rfoot -3.8519405818414088 -4.852141547327596
rtoes 4.083334772529629
lowerback 10.855840815787042 0.34547399963815983 -0.8286766838065065
upperback 0.8365619450340231 -0.13974962849788808 1.0405371521792692
thorax -5.100105324908832 0.32932893980611166 1.9989289342549372
lowerneck -15.914674703062596 -2.85082708313155 -2.054845267635482
upperneck 21.07742153215501 -3.4485141678634257 1.0901222808515743
head 9.294719549140437 -1.7301107957281825 0.1801061504580913
lclavicle -1.3879679699867378e-15 -1.8442003054898193e-15
lhumerus -26.081527044568148 -0.45639349934073126 81.69528680277914
lradius 26.74661832060527
lwrist 5.532665463288952
lhand -27.51819793132224 23.386906169174168
lfingers 7.125019999999999
lthumb -0.6227531201645338 53.95261932490271
rclavicle -1.3889733826874175e-15 -1.8451345542155433e-15
rhumerus -31.211813814031785 -25.40995975485245 -75.61243400537029
rradius 25.77867319175571
rwrist 5.333254995165152
rhand -18.344464246063072 22.770626450369917
rfingers 7.125019999999999
rthumb 7.8140883881775105 -7.24782648348077
